<svg xmlns="http://www.w3.org/2000/svg" width="15" height="15"><path data-name="Forma 1 copy 3" d="M.01 7.51a7.5 7.5 0 107.5-7.5 7.5 7.5 0 00-7.5 7.5zm.57 0a6.951 6.951 0 01.6-2.82l3.31 9.04A6.912 6.912 0 01.58 7.51zm6.93 6.92a7.033 7.033 0 01-1.96-.28l2.08-6.04 2.13 5.83c.01.03.03.06.04.09a6.682 6.682 0 01-2.29.4zm5.59-7.05a6.472 6.472 0 00.53-2.48 5.426 5.426 0 00-.05-.72 6.927 6.927 0 01-2.59 9.31zm-1.49-2.13a3.664 3.664 0 01.57 1.91 6.464 6.464 0 01-.53 2.23l-.69 2.31-2.5-7.44c.42-.02.79-.06.79-.06a.291.291 0 00-.04-.58s-1.12.09-1.85.09c-.68 0-1.82-.09-1.82-.09a.291.291 0 00-.04.58s.35.04.72.06L7.3 7.22l-1.51 4.54-2.53-7.5c.42-.02.8-.06.8-.06a.291.291 0 00-.05-.58s-1.12.09-1.84.09c-.13 0-.28 0-.45-.01a6.919 6.919 0 0110.46-1.3h-.09a1.193 1.193 0 00-1.16 1.22 3.234 3.234 0 00.68 1.63z" fill="#7347c1" fill-rule="evenodd"/></svg>