<svg xmlns="http://www.w3.org/2000/svg" viewBox="0 0 20 20"><path d="M8.4 20c-1.2 0-2.2-1-2.2-2.2s1-2.2 2.2-2.2 2.2 1 2.2 2.2c0 1.2-1 2.2-2.2 2.2zm0-3.3c-.6 0-1.1.5-1.1 1.1s.5 1.1 1.1 1.1 1.1-.5 1.1-1.1-.5-1.1-1.1-1.1zm7.8 3.3C15 20 14 19 14 17.8s1-2.2 2.2-2.2 2.2 1 2.2 2.2c0 1.2-1 2.2-2.2 2.2zm0-3.3c-.6 0-1.1.5-1.1 1.1s.5 1.1 1.1 1.1 1.1-.5 1.1-1.1c0-.6-.5-1.1-1.1-1.1zm2.8-14c-.3-.3-.7-.5-1.2-.5H4.3l-.2-.6C4 .7 3.2 0 2.3 0H1.2C.9 0 .6.2.6.6s.2.6.6.6h1.1c.3 0 .7.3.7.6l1.9 11.1c.1.9 1 1.6 1.8 1.6h11.1c.3 0 .6-.2.6-.6 0-.3-.2-.6-.6-.6h-11c-.3 0-.7-.3-.7-.6l-.3-1.6 11.1-1c.9-.1 1.6-.8 1.8-1.7l.6-4.4c.1-.5 0-.9-.3-1.3zm-.8 1.1l-.7 4.5c-.1.3-.4.7-.8.7L5.5 10 4.4 3.3h13.4c.1 0 .2 0 .3.1.1.1.2.3.1.4z" fill="#0674ec"/></svg>