<svg xmlns="http://www.w3.org/2000/svg" width="99.94" height="100"><path d="M88.29 79.76l4.75-4.75a2.051 2.051 0 00.6-.67 49.935 49.935 0 10-68.69 18.99 50.811 50.811 0 004.94 2.5h-.77a2.085 2.085 0 100 4.17h41.67a2.085 2.085 0 000-4.17h-.9q2.085-.915 4.1-2.01a2.109 2.109 0 00.72-.46l4.99-5 11.02 11.03a2.088 2.088 0 002.95 0l5.64-5.65a2.094 2.094 0 000-2.95zm-61.26 9.96a45.867 45.867 0 0145.84-79.46 46.105 46.105 0 0117.9 60.6l-23.79-6.38a2.084 2.084 0 00-2.55 2.55l6.36 23.77a46.187 46.187 0 01-43.76-1.08zm65.16 5.24L81.18 83.93a2.088 2.088 0 00-2.95 0l-3.91 3.92-4.93-18.41 18.39 4.93-3.91 3.92a2.088 2.088 0 000 2.95l11.02 11.03zm-68.9-34.65h3.3a18.247 18.247 0 006.05-.68q3-1.185 3-5.41a5.162 5.162 0 00-.93-3.28 4.948 4.948 0 00-2.81-1.62 4.259 4.259 0 002.35-1.69 5.7 5.7 0 00.74-3.09 4.811 4.811 0 00-1.22-3.52 6.048 6.048 0 00-3.77-1.5 27.96 27.96 0 00-3.23-.18h-3.48q-3.105 0-3.11 3.27v14.55a3.282 3.282 0 00.75 2.41 3.244 3.244 0 002.36.74zm.98-16.6a.878.878 0 01.89-1.07h2.05a7.9 7.9 0 011.96.18 2.721 2.721 0 011.26.78 2.624 2.624 0 01.43 1.68 2.257 2.257 0 01-1.33 2.32 7.6 7.6 0 01-2.53.27h-2.73v-4.16zm0 7.42h2.91a8.587 8.587 0 012.76.3 2.375 2.375 0 011.52 2.41c0 1.46-.48 2.38-1.43 2.76a7.02 7.02 0 01-2.43.3h-2.2a1.146 1.146 0 01-.87-.27 1.228 1.228 0 01-.26-.86v-4.64zm44.45 8.32a.744.744 0 00.8.89h2.49a.807.807 0 00.59-.23.892.892 0 00.24-.66v-7.96l6.53-10.63a2.225 2.225 0 00.36-.95.521.521 0 00-.36-.51 15.534 15.534 0 00-3-.15 1.436 1.436 0 00-1.21.89c-2.08 3.43-3.5 5.86-4.25 7.31q-1.365-2.64-4.21-7.37a1.4 1.4 0 00-1.19-.83 21.343 21.343 0 00-3.32.12.593.593 0 00-.39.56 2.2 2.2 0 00.39.98l6.53 10.7v7.84zM56.88 39.31h-2.4a.719.719 0 00-.8.83v12.81a5.715 5.715 0 01-.66 3.2c-.51.76-1.68 1.13-3.5 1.13-1.68 0-2.8-.39-3.35-1.18a5.816 5.816 0 01-.63-3.21V40.14a.674.674 0 00-.68-.83h-2.61a.723.723 0 00-.8.83V52a15.971 15.971 0 00.65 5.64c.95 2.06 3.35 3.09 7.18 3.09 3.78 0 6.26-.96 7.42-2.88a6.038 6.038 0 00.72-2.23 29.059 29.059 0 00.17-3.68v-11.8a.684.684 0 00-.71-.83zM40.25 86.24A37.582 37.582 0 0113.73 59.7a2.087 2.087 0 00-4.03 1.09 41.788 41.788 0 0029.47 29.48 2 2 0 00.54.07 2.086 2.086 0 00.54-4.1zm45.93-45.96a2.08 2.08 0 002.01 1.54 2 2 0 00.54-.07 2.081 2.081 0 001.47-2.55A41.789 41.789 0 0060.74 9.71a2.086 2.086 0 10-1.08 4.03 37.634 37.634 0 0126.52 26.54zM48.71 87.5c-.53-.02-1.06-.04-1.56-.08a2.086 2.086 0 10-.32 4.16c.57.04 1.15.07 1.73.09h.08a2.086 2.086 0 00.07-4.17zm2.49-75.02c.53.02 1.05.05 1.56.08a.808.808 0 00.16.01 2.088 2.088 0 00.15-4.17c-.56-.04-1.14-.07-1.73-.09a2.086 2.086 0 00-.14 4.17z" fill="#fff" fill-rule="evenodd"/></svg>