<svg xmlns="http://www.w3.org/2000/svg" viewBox="0 0 20 20"><path d="M18.1 15.7c-1.3-1-2-2.4-2-4V8.3c0-2.8-1.9-5.2-4.4-5.9v-.7c0-1-.8-1.7-1.7-1.7S8.3.7 8.3 1.7v.8c-2.5.7-4.4 3-4.4 5.8v3.3c0 1.6-.7 3-2 4-.2.1-.3.4-.2.6.1.2.3.4.5.4h5.1c0 .2-.1.4-.1.6 0 1.5 1.2 2.8 2.8 2.8s2.8-1.2 2.8-2.8c0-.2 0-.4-.1-.6h5.1c.2 0 .5-.2.5-.4s0-.4-.2-.5zm-8.7-14c0-.3.2-.6.6-.6.3 0 .6.2.6.6v.6H9.4v-.6zm2.3 15.5c0 .9-.7 1.7-1.7 1.7s-1.7-.7-1.7-1.7c0-.2 0-.4.1-.6h3.1c.1.2.2.4.2.6zm-8.1-1.6c.3-.3.5-.7.7-1.1.5-.9.7-1.9.7-2.8V8.3c0-2.8 2.2-5 5-5s5 2.2 5 5v3.3c0 1 .2 1.9.7 2.8.2.4.4.8.7 1.1l-12.8.1z" fill="#7e8fa1"/></svg>