<svg xmlns="http://www.w3.org/2000/svg" width="120" height="100"><path d="M109.953.01H10.047A10.061 10.061 0 000 10.06v54.9a10.061 10.061 0 0010.047 10.05h33.984l-3.412 10.24A7.511 7.511 0 0035 92.51v2.5h-7.5a2.5 2.5 0 000 5h65a2.5 2.5 0 100-5H85v-2.5a7.513 7.513 0 00-5.62-7.26l-3.412-10.24h33.984A10.061 10.061 0 00120 64.96v-54.9A10.061 10.061 0 00109.953.01zm-32.453 90a2.5 2.5 0 012.5 2.5v2.5H40v-2.5a2.5 2.5 0 012.5-2.5h35zm-31.531-5l3.333-10h21.4l3.333 10H45.969zM115 64.96a5.051 5.051 0 01-5.047 5.05H10.047A5.051 5.051 0 015 64.96v-2.45h94.969a2.5 2.5 0 000-5H5V10.06a5.057 5.057 0 015.047-5.05h99.906a5.052 5.052 0 015.044 5H20.431a2.5 2.5 0 100 5H115v49.95zM45.188 41.05a2.5 2.5 0 002.292 2.07l19.063 1.26a2.492 2.492 0 002.637-2.17l1.6-12.63.479-3.78 3.326.01a2.49 2.49 0 00.02-4.98l-5.529-.02a2.481 2.481 0 00-2.48 2.18l-.757 5.97-1.305 10.29-14.771-.98-1.38-7.74h9.927a2.5 2.5 0 100-5H45.4a2.106 2.106 0 00-.43.04 2.493 2.493 0 00-2.031 2.89zm6.23 5.67a2.5 2.5 0 102.5 2.5 2.5 2.5 0 00-2.5-2.5zm12.744 0a2.5 2.5 0 102.5 2.5 2.5 2.5 0 00-2.5-2.5zm-51.4-36.71h-1.123a2.5 2.5 0 100 5h1.123a2.5 2.5 0 10.003-5zm94.423 52.5h1.057a2.5 2.5 0 000-5h-1.057a2.5 2.5 0 00.003 5z" fill="#fff" fill-rule="evenodd"/></svg>