<svg xmlns="http://www.w3.org/2000/svg" viewBox="0 0 20 20"><path d="M9.5 19c-.1 0-.2 0-.2-.1-.1-.1-2.3-1.3-4.6-3.3-1.3-1.2-2.4-2.4-3.2-3.7C.5 10.3 0 8.8 0 7.3 0 4.4 2.4 2 5.3 2c1 0 2 .4 2.9 1 .5.4 1 .9 1.3 1.4.3-.5.8-1 1.3-1.4.9-.7 2-1 2.9-1C16.6 2 19 4.4 19 7.2c0 1.5-.5 3.1-1.5 4.7-.8 1.2-1.8 2.5-3.2 3.7-2.3 2-4.5 3.3-4.6 3.3 0 .1-.1.1-.2.1zM5.3 3C2.9 3 1 4.9 1 7.3c0 3 2.3 5.8 4.3 7.6 1.8 1.6 3.5 2.7 4.2 3.1.6-.4 2.4-1.5 4.2-3.1 2-1.8 4.3-4.5 4.3-7.6C18 4.9 16.1 3 13.8 3 12 3 10.4 4.4 10 5.7c-.1.2-.3.3-.5.3s-.4-.1-.5-.3C8.6 4.4 7 3 5.3 3z" fill="#7347c1"/></svg>