<svg xmlns="http://www.w3.org/2000/svg" width="16" height="12"><path d="M7.33 3.338V1A.993.993 0 005.66.267l-.43.4c-1.42 1.31-3.79 3.5-5 4.72a.937.937 0 000 1.23c1.21 1.216 3.58 3.409 5 4.719l.43.4a.992.992 0 001.67-.732V8.673c4.8.067 8 1.581 8 3a.335.335 0 00.67 0c0-4.498-3.86-8.173-8.67-8.335zM7 8a.333.333 0 00-.33.333V11a.335.335 0 01-.34.333.339.339 0 01-.22-.09l-.43-.4C4.27 9.536 1.91 7.349.7 6.143a.363.363 0 010-.289c1.21-1.207 3.57-3.394 4.98-4.7l.43-.4a.332.332 0 01.56.244v2.666a.334.334 0 00.33.334 8.221 8.221 0 018.16 6.09C13.73 8.844 10.65 8 7 8z" fill="#555" fill-rule="evenodd"/></svg>