<svg xmlns="http://www.w3.org/2000/svg" width="20" height="21"><path data-name="Forma 1" d="M13.792 14.92a4.141 4.141 0 00-.5.61L7.009 11.8a3.455 3.455 0 000-2.63l6.285-3.71a3.535 3.535 0 10-.571-1.9 3.5 3.5 0 00.243 1.27L6.673 8.54a3.662 3.662 0 00-3.041-1.62 3.561 3.561 0 100 7.12 3.65 3.65 0 003.04-1.61l6.292 3.74a3.5 3.5 0 00.824 3.79 3.7 3.7 0 005.142 0 3.512 3.512 0 000-5.04 3.711 3.711 0 00-5.138 0zM16.364.71a2.851 2.851 0 11-2.909 2.85A2.884 2.884 0 0116.364.71zM3.637 13.33a2.846 2.846 0 112.909-2.85 2.884 2.884 0 01-2.909 2.85zm14.783 6.13a2.956 2.956 0 01-4.113 0 2.809 2.809 0 010-4.03 2.964 2.964 0 014.114 0 2.808 2.808 0 01-.001 4.03z" fill-rule="evenodd"/></svg>