<?xml version="1.0" encoding="utf-8"?>
<!-- Generator: Adobe Illustrator 24.1.3, SVG Export Plug-In . SVG Version: 6.00 Build 0)  -->
<svg version="1.1" id="Layer_1" xmlns="http://www.w3.org/2000/svg" xmlns:xlink="http://www.w3.org/1999/xlink" x="0px" y="0px"
	 viewBox="0 0 20 20" style="enable-background:new 0 0 20 20;" xml:space="preserve">
<style type="text/css">
	.st0{fill:#7E8FA1;}
</style>
<g>
	<path class="st0" d="M8.4,20c-1.2,0-2.2-1-2.2-2.2c0-1.2,1-2.2,2.2-2.2s2.2,1,2.2,2.2C10.6,19,9.6,20,8.4,20z M8.4,16.7
		c-0.6,0-1.1,0.5-1.1,1.1c0,0.6,0.5,1.1,1.1,1.1s1.1-0.5,1.1-1.1C9.5,17.2,9,16.7,8.4,16.7z"/>
	<path class="st0" d="M16.2,20C15,20,14,19,14,17.8c0-1.2,1-2.2,2.2-2.2c1.2,0,2.2,1,2.2,2.2C18.4,19,17.4,20,16.2,20z M16.2,16.7
		c-0.6,0-1.1,0.5-1.1,1.1c0,0.6,0.5,1.1,1.1,1.1c0.6,0,1.1-0.5,1.1-1.1C17.3,17.2,16.8,16.7,16.2,16.7z"/>
	<path class="st0" d="M19,2.7c-0.3-0.3-0.7-0.5-1.2-0.5H4.3L4.1,1.6C4,0.7,3.2,0,2.3,0H1.2C0.9,0,0.6,0.2,0.6,0.6s0.2,0.6,0.6,0.6
		h1.1c0.3,0,0.7,0.3,0.7,0.6l1.9,11.1c0.1,0.9,1,1.6,1.8,1.6h11.1c0.3,0,0.6-0.2,0.6-0.6c0-0.3-0.2-0.6-0.6-0.6H6.8
		c-0.3,0-0.7-0.3-0.7-0.6l-0.3-1.6l11.1-1c0.9-0.1,1.6-0.8,1.8-1.7L19.3,4C19.4,3.5,19.3,3.1,19,2.7L19,2.7z M18.2,3.8l-0.7,4.5
		C17.4,8.6,17.1,9,16.7,9L5.5,10L4.4,3.3h13.4c0.1,0,0.2,0,0.3,0.1C18.2,3.5,18.3,3.7,18.2,3.8L18.2,3.8z"/>
</g>
</svg>
