<?xml version="1.0" encoding="utf-8"?>
<!-- Generator: Adobe Illustrator 24.1.3, SVG Export Plug-In . SVG Version: 6.00 Build 0)  -->
<svg version="1.1" id="Layer_1" xmlns="http://www.w3.org/2000/svg" xmlns:xlink="http://www.w3.org/1999/xlink" x="0px" y="0px"
	 viewBox="0 0 20 20" style="enable-background:new 0 0 20 20;" xml:space="preserve">
<style type="text/css">
	.st0{fill:#7E8FA1;}
</style>
<path class="st0" d="M18.1,15.7c-1.3-1-2-2.4-2-4V8.3c0-2.8-1.9-5.2-4.4-5.9V1.7C11.7,0.7,10.9,0,10,0S8.3,0.7,8.3,1.7v0.8
	C5.8,3.2,3.9,5.5,3.9,8.3v3.3c0,1.6-0.7,3-2,4c-0.2,0.1-0.3,0.4-0.2,0.6c0.1,0.2,0.3,0.4,0.5,0.4h5.1c0,0.2-0.1,0.4-0.1,0.6
	c0,1.5,1.2,2.8,2.8,2.8s2.8-1.2,2.8-2.8c0-0.2,0-0.4-0.1-0.6h5.1c0.2,0,0.5-0.2,0.5-0.4S18.3,15.8,18.1,15.7L18.1,15.7z M9.4,1.7
	c0-0.3,0.2-0.6,0.6-0.6c0.3,0,0.6,0.2,0.6,0.6v0.6c-0.2,0-0.4,0-0.6,0s-0.4,0-0.6,0V1.7z M11.7,17.2c0,0.9-0.7,1.7-1.7,1.7
	s-1.7-0.7-1.7-1.7c0-0.2,0-0.4,0.1-0.6h3.1C11.6,16.8,11.7,17,11.7,17.2z M3.6,15.6c0.3-0.3,0.5-0.7,0.7-1.1C4.8,13.6,5,12.6,5,11.7
	V8.3c0-2.8,2.2-5,5-5s5,2.2,5,5v3.3c0,1,0.2,1.9,0.7,2.8c0.2,0.4,0.4,0.8,0.7,1.1L3.6,15.6L3.6,15.6z"/>
</svg>
